<!--?xml version="1.0" standalone="no"?-->              <svg id="sw-js-blob-svg" viewBox="0 0 100 100" xmlns="http://www.w3.org/2000/svg" version="1.1">                    <defs>                         <linearGradient id="sw-gradient" x1="0" x2="1" y1="1" y2="0">                            <stop id="stop1" stop-color="rgba(163.941, 0, 255, 1)" offset="0%"></stop>                            <stop id="stop2" stop-color="rgba(255, 255, 255, 1)" offset="100%"></stop>                        </linearGradient>                    </defs>                <path fill="url(#sw-gradient)" d="M20.4,-34.4C27,-31.6,33.3,-27.2,37.6,-21.2C42,-15.2,44.5,-7.6,44.3,-0.1C44.1,7.3,41.1,14.7,37.5,21.9C33.8,29.1,29.4,36.1,23,39.7C16.6,43.3,8.3,43.4,0.8,41.9C-6.6,40.5,-13.3,37.5,-19.8,34.1C-26.4,30.6,-32.8,26.6,-36.4,20.9C-40,15.1,-40.8,7.6,-41,-0.1C-41.3,-7.8,-40.9,-15.6,-38,-22.6C-35.1,-29.6,-29.7,-35.8,-22.9,-38.5C-16.2,-41.2,-8.1,-40.4,-0.6,-39.4C6.9,-38.4,13.8,-37.2,20.4,-34.4Z" width="100%" height="100%" transform="translate(50 50)" stroke-width="0" style="transition: all 0.3s ease 0s;" stroke="url(#sw-gradient)"></path>              </svg>