<svg id="wave" style="transform:rotate(0deg); transition: 0.3s" viewBox="0 0 1440 330" version="1.1" xmlns="http://www.w3.org/2000/svg"><defs><linearGradient id="sw-gradient-0" x1="0" x2="0" y1="1" y2="0"><stop stop-color="rgba(255, 255, 255, 0.37)" offset="0%"></stop><stop stop-color="rgba(132, 223, 255, 1)" offset="100%"></stop></linearGradient></defs><path style="transform:translate(0, 0px); opacity:1" fill="url(#sw-gradient-0)" d="M0,264L34.3,264C68.6,264,137,264,206,225.5C274.3,187,343,110,411,93.5C480,77,549,121,617,154C685.7,187,754,209,823,209C891.4,209,960,187,1029,165C1097.1,143,1166,121,1234,132C1302.9,143,1371,187,1440,198C1508.6,209,1577,187,1646,170.5C1714.3,154,1783,143,1851,159.5C1920,176,1989,220,2057,236.5C2125.7,253,2194,242,2263,242C2331.4,242,2400,253,2469,236.5C2537.1,220,2606,176,2674,165C2742.9,154,2811,176,2880,154C2948.6,132,3017,66,3086,49.5C3154.3,33,3223,66,3291,115.5C3360,165,3429,231,3497,225.5C3565.7,220,3634,143,3703,110C3771.4,77,3840,88,3909,110C3977.1,132,4046,165,4114,192.5C4182.9,220,4251,242,4320,236.5C4388.6,231,4457,198,4526,198C4594.3,198,4663,231,4731,242C4800,253,4869,242,4903,236.5L4937.1,231L4937.1,330L4902.9,330C4868.6,330,4800,330,4731,330C4662.9,330,4594,330,4526,330C4457.1,330,4389,330,4320,330C4251.4,330,4183,330,4114,330C4045.7,330,3977,330,3909,330C3840,330,3771,330,3703,330C3634.3,330,3566,330,3497,330C3428.6,330,3360,330,3291,330C3222.9,330,3154,330,3086,330C3017.1,330,2949,330,2880,330C2811.4,330,2743,330,2674,330C2605.7,330,2537,330,2469,330C2400,330,2331,330,2263,330C2194.3,330,2126,330,2057,330C1988.6,330,1920,330,1851,330C1782.9,330,1714,330,1646,330C1577.1,330,1509,330,1440,330C1371.4,330,1303,330,1234,330C1165.7,330,1097,330,1029,330C960,330,891,330,823,330C754.3,330,686,330,617,330C548.6,330,480,330,411,330C342.9,330,274,330,206,330C137.1,330,69,330,34,330L0,330Z"></path><defs><linearGradient id="sw-gradient-1" x1="0" x2="0" y1="1" y2="0"><stop stop-color="rgba(164, 0, 255, 0)" offset="0%"></stop><stop stop-color="rgba(255, 255, 255, 0.26)" offset="100%"></stop></linearGradient></defs><path style="transform:translate(0, 50px); opacity:0.9" fill="url(#sw-gradient-1)" d="M0,99L34.3,88C68.6,77,137,55,206,66C274.3,77,343,121,411,121C480,121,549,77,617,55C685.7,33,754,33,823,49.5C891.4,66,960,99,1029,93.5C1097.1,88,1166,44,1234,27.5C1302.9,11,1371,22,1440,66C1508.6,110,1577,187,1646,187C1714.3,187,1783,110,1851,110C1920,110,1989,187,2057,225.5C2125.7,264,2194,264,2263,253C2331.4,242,2400,220,2469,203.5C2537.1,187,2606,176,2674,181.5C2742.9,187,2811,209,2880,181.5C2948.6,154,3017,77,3086,60.5C3154.3,44,3223,88,3291,99C3360,110,3429,88,3497,93.5C3565.7,99,3634,132,3703,121C3771.4,110,3840,55,3909,77C3977.1,99,4046,198,4114,214.5C4182.9,231,4251,165,4320,143C4388.6,121,4457,143,4526,148.5C4594.3,154,4663,143,4731,137.5C4800,132,4869,132,4903,132L4937.1,132L4937.1,330L4902.9,330C4868.6,330,4800,330,4731,330C4662.9,330,4594,330,4526,330C4457.1,330,4389,330,4320,330C4251.4,330,4183,330,4114,330C4045.7,330,3977,330,3909,330C3840,330,3771,330,3703,330C3634.3,330,3566,330,3497,330C3428.6,330,3360,330,3291,330C3222.9,330,3154,330,3086,330C3017.1,330,2949,330,2880,330C2811.4,330,2743,330,2674,330C2605.7,330,2537,330,2469,330C2400,330,2331,330,2263,330C2194.3,330,2126,330,2057,330C1988.6,330,1920,330,1851,330C1782.9,330,1714,330,1646,330C1577.1,330,1509,330,1440,330C1371.4,330,1303,330,1234,330C1165.7,330,1097,330,1029,330C960,330,891,330,823,330C754.3,330,686,330,617,330C548.6,330,480,330,411,330C342.9,330,274,330,206,330C137.1,330,69,330,34,330L0,330Z"></path><defs><linearGradient id="sw-gradient-2" x1="0" x2="0" y1="1" y2="0"><stop stop-color="rgba(243, 106, 62, 0)" offset="0%"></stop><stop stop-color="rgba(11, 180.612, 255, 0.22)" offset="100%"></stop></linearGradient></defs><path style="transform:translate(0, 100px); opacity:0.8" fill="url(#sw-gradient-2)" d="M0,99L34.3,121C68.6,143,137,187,206,181.5C274.3,176,343,121,411,121C480,121,549,176,617,203.5C685.7,231,754,231,823,231C891.4,231,960,231,1029,231C1097.1,231,1166,231,1234,209C1302.9,187,1371,143,1440,115.5C1508.6,88,1577,77,1646,71.5C1714.3,66,1783,66,1851,99C1920,132,1989,198,2057,203.5C2125.7,209,2194,154,2263,115.5C2331.4,77,2400,55,2469,82.5C2537.1,110,2606,187,2674,214.5C2742.9,242,2811,220,2880,192.5C2948.6,165,3017,132,3086,115.5C3154.3,99,3223,99,3291,99C3360,99,3429,99,3497,115.5C3565.7,132,3634,165,3703,159.5C3771.4,154,3840,110,3909,110C3977.1,110,4046,154,4114,159.5C4182.9,165,4251,132,4320,110C4388.6,88,4457,77,4526,93.5C4594.3,110,4663,154,4731,187C4800,220,4869,242,4903,253L4937.1,264L4937.1,330L4902.9,330C4868.6,330,4800,330,4731,330C4662.9,330,4594,330,4526,330C4457.1,330,4389,330,4320,330C4251.4,330,4183,330,4114,330C4045.7,330,3977,330,3909,330C3840,330,3771,330,3703,330C3634.3,330,3566,330,3497,330C3428.6,330,3360,330,3291,330C3222.9,330,3154,330,3086,330C3017.1,330,2949,330,2880,330C2811.4,330,2743,330,2674,330C2605.7,330,2537,330,2469,330C2400,330,2331,330,2263,330C2194.3,330,2126,330,2057,330C1988.6,330,1920,330,1851,330C1782.9,330,1714,330,1646,330C1577.1,330,1509,330,1440,330C1371.4,330,1303,330,1234,330C1165.7,330,1097,330,1029,330C960,330,891,330,823,330C754.3,330,686,330,617,330C548.6,330,480,330,411,330C342.9,330,274,330,206,330C137.1,330,69,330,34,330L0,330Z"></path></svg>